<?xml version="1.0" encoding="utf-8"?>
<!-- Generator: Adobe Illustrator 25.2.1, SVG Export Plug-In . SVG Version: 6.00 Build 0)  -->
<svg version="1.1" id="objects" xmlns="http://www.w3.org/2000/svg" xmlns:xlink="http://www.w3.org/1999/xlink" x="0px" y="0px"
	 viewBox="0 0 533.2 385.8" style="enable-background:new 0 0 533.2 385.8;" xml:space="preserve">
<style type="text/css">
	.st0{fill:url(#SVGID_1_);}
	.st1{fill:url(#SVGID_2_);}
	.st2{fill:url(#SVGID_3_);}
	.st3{fill:url(#SVGID_4_);}
	.st4{fill:none;stroke:#000000;stroke-width:0.5;stroke-miterlimit:10;}
	.st5{fill:url(#SVGID_5_);}
	.st6{fill:#232323;}
	.st7{fill:url(#SVGID_8_);}
	.st8{fill:url(#SVGID_9_);}
	.st9{fill:url(#SVGID_10_);}
	.st10{fill:url(#SVGID_11_);}
	.st11{fill:url(#SVGID_12_);}
	.st12{fill:url(#SVGID_13_);}
	.st13{fill:url(#SVGID_14_);}
	.st14{fill:url(#SVGID_15_);}
	.st15{fill:url(#SVGID_16_);}
	.st16{fill:url(#SVGID_17_);}
	.st17{fill:url(#SVGID_18_);}
	.st18{fill:url(#SVGID_19_);}
	.st19{fill:#010101;}
	.st20{clip-path:url(#SVGID_21_);}
	.st21{fill:url(#SVGID_22_);}
	.st22{fill:url(#SVGID_23_);}
</style>
<linearGradient id="SVGID_1_" gradientUnits="userSpaceOnUse" x1="298.78" y1="-21.78" x2="298.78" y2="-29.08" gradientTransform="matrix(1 0 0 -1 -33.78 277.89)">
	<stop  offset="0.36" style="stop-color:#808185"/>
	<stop  offset="0.5" style="stop-color:#78797D"/>
	<stop  offset="0.54" style="stop-color:#7A7B7F"/>
	<stop  offset="1" style="stop-color:#0D0C11"/>
</linearGradient>
<path class="st0" d="M530,299.6c0,0-16.3,7.1-40.8,7.1H40.8c-24.5,0-40.8-7.1-40.8-7.1l265-2L530,299.6z"/>
<linearGradient id="SVGID_2_" gradientUnits="userSpaceOnUse" x1="265" y1="385.56" x2="265" y2="104.64" gradientTransform="matrix(1 0 0 -1 0 385.89)">
	<stop  offset="0" style="stop-color:#0E0E0E"/>
	<stop  offset="1.000000e-02" style="stop-color:#373737"/>
	<stop  offset="0.1" style="stop-color:#3E3E3E"/>
	<stop  offset="0.12" style="stop-color:#949494"/>
	<stop  offset="0.17" style="stop-color:#3E3E3E"/>
	<stop  offset="0.24" style="stop-color:#1F1F1F"/>
	<stop  offset="0.41" style="stop-color:#3E3E3E"/>
	<stop  offset="0.43" style="stop-color:#808080"/>
	<stop  offset="0.46" style="stop-color:#3E3E3E"/>
	<stop  offset="0.57" style="stop-color:#3E3E3E"/>
	<stop  offset="0.6" style="stop-color:#646464"/>
	<stop  offset="0.63" style="stop-color:#3E3E3E"/>
	<stop  offset="0.69" style="stop-color:#3E3E3E"/>
	<stop  offset="0.79" style="stop-color:#0C0C0C"/>
	<stop  offset="0.9" style="stop-color:#3E3E3E"/>
	<stop  offset="0.93" style="stop-color:#8F8F8F"/>
	<stop  offset="0.96" style="stop-color:#3E3E3E"/>
</linearGradient>
<path class="st1" d="M59.9,0h410.1c5.5,0,10,4.5,10,10v279.5l0,0H49.9l0,0V10C49.9,4.5,54.4,0,59.9,0z"/>
<path d="M51.5,289.5V10.2c0-4.8,3.9-8.6,8.7-8.7h409.7c4.8,0,8.7,3.9,8.7,8.7v279.3H51.5z"/>
<linearGradient id="SVGID_3_" gradientUnits="userSpaceOnUse" x1="0" y1="91.335" x2="530" y2="91.335" gradientTransform="matrix(1 0 0 -1 0 385.89)">
	<stop  offset="0" style="stop-color:#49484D"/>
	<stop  offset="1.000000e-02" style="stop-color:#D3D4D9"/>
	<stop  offset="3.000000e-02" style="stop-color:#D0D1D6"/>
	<stop  offset="8.000000e-02" style="stop-color:#8C8D92"/>
	<stop  offset="9.000000e-02" style="stop-color:#85868B"/>
	<stop  offset="0.51" style="stop-color:#CBCCD2"/>
	<stop  offset="0.93" style="stop-color:#85868B"/>
	<stop  offset="0.94" style="stop-color:#8B8C91"/>
	<stop  offset="0.98" style="stop-color:#D0D1D6"/>
	<stop  offset="0.99" style="stop-color:#D3D4D9"/>
	<stop  offset="1" style="stop-color:#454449"/>
</linearGradient>
<rect y="289.5" class="st2" width="530" height="10.2"/>
<linearGradient id="SVGID_4_" gradientUnits="userSpaceOnUse" x1="222.19" y1="92.88" x2="307.81" y2="92.88" gradientTransform="matrix(1 0 0 -1 0 385.89)">
	<stop  offset="0" style="stop-color:#161617"/>
	<stop  offset="6.000000e-02" style="stop-color:#84848A"/>
	<stop  offset="0.3" style="stop-color:#8F8F96"/>
	<stop  offset="0.52" style="stop-color:#ADADB5"/>
	<stop  offset="0.72" style="stop-color:#8A8B91"/>
	<stop  offset="0.95" style="stop-color:#7B7C81"/>
	<stop  offset="1" style="stop-color:#0D0C11"/>
</linearGradient>
<path class="st3" d="M222.2,289.5h85.6l0,0v1c0,3.4-2.7,6.1-6.1,6.1l0,0h-73.4c-3.4,0-6.1-2.7-6.1-6.1l0,0L222.2,289.5L222.2,289.5
	L222.2,289.5z"/>
<line class="st4" x1="478.5" y1="280.3" x2="51.5" y2="280.3"/>
<linearGradient id="SVGID_5_" gradientUnits="userSpaceOnUse" x1="78.21" y1="269.65" x2="171.03" y2="176.83" gradientTransform="matrix(1 0 0 -1 -33.78 277.89)">
	<stop  offset="0" style="stop-color:#9E9E9E"/>
	<stop  offset="1" style="stop-color:#1D1D1B"/>
</linearGradient>
<path class="st5" d="M238.5,3.1L53,216.1V10.2c0-3.9,3.2-7.1,7.1-7.1L238.5,3.1z"/>
<g>
	<defs>
		<rect id="SVGID_6_" x="62.2" y="20.4" width="405.7" height="252.8"/>
	</defs>
	<clipPath id="SVGID_7_">
		<use xlink:href="#SVGID_6_"  style="overflow:visible;"/>
	</clipPath>
	<g style="clip-path:url(#SVGID_7_);enable-background:new    ;">
		
			<image style="overflow:visible;" width="1088" height="680" xlink:href="Macbook-Air-thalissonng.github.io.png"  transform="matrix(0.3732 0 0 0.3732 61.81 18.8119)">
		</image>
	</g>
</g>
<circle class="st6" cx="265" cy="11.2" r="3.1"/>
<linearGradient id="SVGID_8_" gradientUnits="userSpaceOnUse" x1="462.42" y1="71.21" x2="462.42" y2="41.61" gradientTransform="matrix(1 0 0 -1 -33.78 277.89)">
	<stop  offset="0" style="stop-color:#0E0E0E"/>
	<stop  offset="1.000000e-02" style="stop-color:#373737"/>
	<stop  offset="0.1" style="stop-color:#3E3E3E"/>
	<stop  offset="0.12" style="stop-color:#949494"/>
	<stop  offset="0.17" style="stop-color:#3E3E3E"/>
	<stop  offset="0.24" style="stop-color:#1F1F1F"/>
	<stop  offset="0.41" style="stop-color:#3E3E3E"/>
	<stop  offset="0.43" style="stop-color:#808080"/>
	<stop  offset="0.46" style="stop-color:#3E3E3E"/>
	<stop  offset="0.57" style="stop-color:#3E3E3E"/>
	<stop  offset="0.6" style="stop-color:#646464"/>
	<stop  offset="0.63" style="stop-color:#3E3E3E"/>
	<stop  offset="0.69" style="stop-color:#3E3E3E"/>
	<stop  offset="0.79" style="stop-color:#0C0C0C"/>
	<stop  offset="0.9" style="stop-color:#3E3E3E"/>
	<stop  offset="0.93" style="stop-color:#8F8F8F"/>
	<stop  offset="0.96" style="stop-color:#3E3E3E"/>
</linearGradient>
<path class="st7" d="M429.3,217.2v7.9h-0.6c-0.4,0-0.6-0.3-0.6-0.6v-6.6c0-0.4,0.3-0.6,0.6-0.6h0H429.3z"/>
<linearGradient id="SVGID_9_" gradientUnits="userSpaceOnUse" x1="462.42" y1="51.76" x2="462.42" y2="-12.96" gradientTransform="matrix(1 0 0 -1 -33.78 277.89)">
	<stop  offset="0" style="stop-color:#0E0E0E"/>
	<stop  offset="1.000000e-02" style="stop-color:#373737"/>
	<stop  offset="0.1" style="stop-color:#3E3E3E"/>
	<stop  offset="0.12" style="stop-color:#949494"/>
	<stop  offset="0.17" style="stop-color:#3E3E3E"/>
	<stop  offset="0.24" style="stop-color:#1F1F1F"/>
	<stop  offset="0.41" style="stop-color:#3E3E3E"/>
	<stop  offset="0.43" style="stop-color:#808080"/>
	<stop  offset="0.46" style="stop-color:#3E3E3E"/>
	<stop  offset="0.57" style="stop-color:#3E3E3E"/>
	<stop  offset="0.6" style="stop-color:#646464"/>
	<stop  offset="0.63" style="stop-color:#3E3E3E"/>
	<stop  offset="0.69" style="stop-color:#3E3E3E"/>
	<stop  offset="0.79" style="stop-color:#0C0C0C"/>
	<stop  offset="0.9" style="stop-color:#3E3E3E"/>
	<stop  offset="0.93" style="stop-color:#8F8F8F"/>
	<stop  offset="0.96" style="stop-color:#3E3E3E"/>
</linearGradient>
<path class="st8" d="M429.3,233v15.4h-0.6c-0.4,0-0.6-0.3-0.6-0.6v0v-14.1c0-0.4,0.3-0.6,0.6-0.6L429.3,233z"/>
<linearGradient id="SVGID_10_" gradientUnits="userSpaceOnUse" x1="566.29" y1="40.98" x2="566.29" y2="-43.46" gradientTransform="matrix(1 0 0 -1 -33.78 277.89)">
	<stop  offset="0" style="stop-color:#0E0E0E"/>
	<stop  offset="1.000000e-02" style="stop-color:#373737"/>
	<stop  offset="0.1" style="stop-color:#3E3E3E"/>
	<stop  offset="0.12" style="stop-color:#949494"/>
	<stop  offset="0.17" style="stop-color:#3E3E3E"/>
	<stop  offset="0.24" style="stop-color:#1F1F1F"/>
	<stop  offset="0.41" style="stop-color:#3E3E3E"/>
	<stop  offset="0.43" style="stop-color:#808080"/>
	<stop  offset="0.46" style="stop-color:#3E3E3E"/>
	<stop  offset="0.57" style="stop-color:#3E3E3E"/>
	<stop  offset="0.6" style="stop-color:#646464"/>
	<stop  offset="0.63" style="stop-color:#3E3E3E"/>
	<stop  offset="0.69" style="stop-color:#3E3E3E"/>
	<stop  offset="0.79" style="stop-color:#0C0C0C"/>
	<stop  offset="0.9" style="stop-color:#3E3E3E"/>
	<stop  offset="0.93" style="stop-color:#8F8F8F"/>
	<stop  offset="0.96" style="stop-color:#3E3E3E"/>
</linearGradient>
<path class="st9" d="M533.2,238.5V262c0,0.3-0.2,0.5-0.5,0.5c0,0,0,0,0,0h-0.9V238h0.9C533,238,533.2,238.2,533.2,238.5z"/>
<linearGradient id="SVGID_11_" gradientUnits="userSpaceOnUse" x1="480.605" y1="211.1" x2="480.605" y2="0.1" gradientTransform="matrix(1 0 0 -1 0 385.89)">
	<stop  offset="0" style="stop-color:#0E0E0E"/>
	<stop  offset="1.000000e-02" style="stop-color:#373737"/>
	<stop  offset="0.1" style="stop-color:#3E3E3E"/>
	<stop  offset="0.12" style="stop-color:#949494"/>
	<stop  offset="0.17" style="stop-color:#3E3E3E"/>
	<stop  offset="0.24" style="stop-color:#1F1F1F"/>
	<stop  offset="0.41" style="stop-color:#3E3E3E"/>
	<stop  offset="0.43" style="stop-color:#808080"/>
	<stop  offset="0.46" style="stop-color:#3E3E3E"/>
	<stop  offset="0.57" style="stop-color:#3E3E3E"/>
	<stop  offset="0.6" style="stop-color:#646464"/>
	<stop  offset="0.63" style="stop-color:#3E3E3E"/>
	<stop  offset="0.69" style="stop-color:#3E3E3E"/>
	<stop  offset="0.79" style="stop-color:#0C0C0C"/>
	<stop  offset="0.9" style="stop-color:#3E3E3E"/>
	<stop  offset="0.93" style="stop-color:#8F8F8F"/>
	<stop  offset="0.96" style="stop-color:#3E3E3E"/>
</linearGradient>
<path class="st10" d="M444,174.8h73.3c8.3,0,15,6.7,15,15v181c0,8.3-6.7,15-15,15H444c-8.3,0-15-6.7-15-15v-181
	C429,181.5,435.7,174.8,444,174.8z"/>
<linearGradient id="SVGID_12_" gradientUnits="userSpaceOnUse" x1="429" y1="193.535" x2="430.67" y2="193.535" gradientTransform="matrix(1 0 0 -1 0 385.89)">
	<stop  offset="0" style="stop-color:#9B9B9B"/>
	<stop  offset="1" style="stop-color:#696969"/>
</linearGradient>
<rect x="429" y="192.2" class="st11" width="1.7" height="0.3"/>
<linearGradient id="SVGID_13_" gradientUnits="userSpaceOnUse" x1="530.55" y1="193.535" x2="532.22" y2="193.535" gradientTransform="matrix(1 0 0 -1 0 385.89)">
	<stop  offset="0" style="stop-color:#696969"/>
	<stop  offset="1" style="stop-color:#9B9B9B"/>
</linearGradient>
<rect x="530.5" y="192.2" class="st12" width="1.7" height="0.3"/>
<linearGradient id="SVGID_14_" gradientUnits="userSpaceOnUse" x1="-116" y1="362.295" x2="-114.34" y2="362.295" gradientTransform="matrix(6.123234e-17 -1 -1 -6.123234e-17 875.81 60.4599)">
	<stop  offset="0" style="stop-color:#696969"/>
	<stop  offset="1" style="stop-color:#9B9B9B"/>
</linearGradient>
<rect x="513.4" y="174.8" class="st13" width="0.3" height="1.7"/>
<linearGradient id="SVGID_15_" gradientUnits="userSpaceOnUse" x1="-116" y1="428.085" x2="-114.34" y2="428.085" gradientTransform="matrix(6.123234e-17 -1 -1 -6.123234e-17 875.8 60.45)">
	<stop  offset="0" style="stop-color:#696969"/>
	<stop  offset="1" style="stop-color:#9B9B9B"/>
</linearGradient>
<rect x="447.6" y="174.8" class="st14" width="0.3" height="1.7"/>
<linearGradient id="SVGID_16_" gradientUnits="userSpaceOnUse" x1="462.78" y1="297.275" x2="464.45" y2="297.275" gradientTransform="matrix(1 0 0 1 -33.78 70.95)">
	<stop  offset="0" style="stop-color:#9B9B9B"/>
	<stop  offset="1" style="stop-color:#696969"/>
</linearGradient>
<rect x="429" y="368.1" class="st15" width="1.7" height="0.3"/>
<linearGradient id="SVGID_17_" gradientUnits="userSpaceOnUse" x1="564.33" y1="297.275" x2="565.99" y2="297.275" gradientTransform="matrix(1 0 0 1 -33.78 70.95)">
	<stop  offset="0" style="stop-color:#696969"/>
	<stop  offset="1" style="stop-color:#9B9B9B"/>
</linearGradient>
<rect x="530.5" y="368.1" class="st16" width="1.7" height="0.3"/>
<linearGradient id="SVGID_18_" gradientUnits="userSpaceOnUse" x1="95.74" y1="362.295" x2="97.4" y2="362.295" gradientTransform="matrix(6.123234e-17 1 -1 6.123234e-17 875.8 288.38)">
	<stop  offset="0" style="stop-color:#696969"/>
	<stop  offset="1" style="stop-color:#9B9B9B"/>
</linearGradient>
<rect x="513.4" y="384.1" class="st17" width="0.3" height="1.7"/>
<linearGradient id="SVGID_19_" gradientUnits="userSpaceOnUse" x1="95.74" y1="428.085" x2="97.4" y2="428.085" gradientTransform="matrix(6.123234e-17 1 -1 6.123234e-17 875.8 288.38)">
	<stop  offset="0" style="stop-color:#696969"/>
	<stop  offset="1" style="stop-color:#9B9B9B"/>
</linearGradient>
<rect x="447.6" y="384.1" class="st18" width="0.3" height="1.7"/>
<path class="st19" d="M444,176.4h73.2c7.4,0,13.3,6,13.3,13.3v181c0,7.4-6,13.3-13.3,13.3H444c-7.4,0-13.3-6-13.3-13.3v-181
	C430.7,182.4,436.6,176.4,444,176.4z"/>
<g>
	<defs>
		<path id="SVGID_20_" d="M527.5,189.8v181c0,5.5-4.5,10-10,10h-73.2c-5.5,0-10-4.5-10-10v-181c0-5.5,4.5-10,10-10h16.2
			c0.7,0,1.2,0.6,1.2,1.2v1.2c0,3,2.4,5.4,5.4,5.4l0,0h27.5c3,0,5.4-2.4,5.4-5.4V181c0-0.7,0.6-1.2,1.2-1.2h16.2
			C523.1,179.8,527.5,184.2,527.5,189.8C527.5,189.8,527.5,189.8,527.5,189.8z"/>
	</defs>
	<clipPath id="SVGID_21_">
		<use xlink:href="#SVGID_20_"  style="overflow:visible;"/>
	</clipPath>
	<g class="st20">
		
			<image style="overflow:visible;enable-background:new    ;" width="366" height="793" xlink:href="iPhone-13-PRO-thalissonng.github.io.png"  transform="matrix(0.2554 0 0 0.2554 434.0659 178.6322)">
		</image>
	</g>
</g>
<linearGradient id="SVGID_22_" gradientUnits="userSpaceOnUse" x1="466.62" y1="201.92" x2="466.62" y2="204.64" gradientTransform="matrix(1 0 0 -1 0 385.89)">
	<stop  offset="0.43" style="stop-color:#363636"/>
	<stop  offset="1" style="stop-color:#1A1A1A"/>
</linearGradient>
<circle class="st21" cx="466.6" cy="182.7" r="1.5"/>
<linearGradient id="SVGID_23_" gradientUnits="userSpaceOnUse" x1="480.605" y1="201.92" x2="480.605" y2="204.64" gradientTransform="matrix(1 0 0 -1 0 385.89)">
	<stop  offset="0.43" style="stop-color:#363636"/>
	<stop  offset="1" style="stop-color:#1A1A1A"/>
</linearGradient>
<path class="st22" d="M476.4,181.1h8.3c0.8,0,1.5,0.7,1.5,1.5v0c0,0.8-0.7,1.5-1.5,1.5h-8.3c-0.8,0-1.5-0.7-1.5-1.5v0
	C474.9,181.8,475.6,181.1,476.4,181.1z"/>
</svg>
